<?xml version="1.0" encoding="iso-8859-1"?>
<!-- Uploaded to: SVG Repo, www.svgrepo.com, Generator: SVG Repo Mixer Tools -->
<svg height="800px" width="800px" version="1.1" id="Layer_1" xmlns="http://www.w3.org/2000/svg" xmlns:xlink="http://www.w3.org/1999/xlink" 
	 viewBox="0 0 501.551 501.551" xml:space="preserve">
<g>
	<path style="fill:#FFD15C;" d="M199.053,17.763c0,0,13.584,28.212-8.359,56.424c-5.224,6.269-9.404,14.629-10.449,22.988
		c-2.09,12.539-1.045,28.212,15.673,41.796c0,0-10.449-28.212,12.539-57.469c4.18-5.224,7.314-11.494,9.404-18.808
		C219.951,49.11,218.906,32.392,199.053,17.763z"/>
	<path style="fill:#FFD15C;" d="M251.298,0c0,0,16.718,36.571-11.494,72.098c-6.269,8.359-11.494,18.808-13.584,29.257
		c-3.135,15.673-2.09,36.571,19.853,53.29c0,0-13.584-36.571,16.718-74.188c5.224-7.314,10.449-15.673,12.539-24.033
		C278.465,40.751,276.376,18.808,251.298,0z"/>
	<path style="fill:#FFD15C;" d="M302.498,17.763c0,0,13.584,28.212-8.359,56.424c-5.225,6.269-9.404,14.629-10.449,22.988
		c-2.09,12.539-1.045,28.212,15.673,41.796c0,0-10.449-28.212,12.539-57.469c4.18-5.224,7.314-11.494,9.404-18.808
		C323.396,49.11,323.396,32.392,302.498,17.763z"/>
</g>
<path style="fill:#F1543F;" d="M352.653,380.343h-204.8c-12.539,0-22.988,10.449-22.988,22.988s10.449,22.988,22.988,22.988h204.8
	c12.539,0,22.988-10.449,22.988-22.988S365.192,380.343,352.653,380.343z"/>
<path style="fill:#40596B;" d="M478.041,140.016c-1.045,11.494-3.135,21.943-5.224,31.347c0,1.045-1.045,3.135-1.045,4.18
	c-25.078,99.265-114.939,172.408-221.518,172.408S53.812,274.808,28.735,175.543c0-1.045-1.045-3.135-1.045-4.18
	c-2.09-10.449-4.18-20.898-5.224-31.347H478.041z"/>
<path style="fill:#E2E2E2;" d="M475.951,122.253H24.555c-9.404,0-16.718,7.314-16.718,16.718s7.314,16.718,16.718,16.718h452.441
	c9.404,0,16.718-7.314,16.718-16.718C492.669,129.567,485.355,122.253,475.951,122.253z"/>
<g>
	<path style="fill:#FF7058;" d="M397.584,501.551c-16.718,0-32.392-10.449-37.616-26.122l-42.841-115.984l-6.269-19.853
		c27.167-7.314,51.2-18.808,73.143-35.527l7.314,18.808l44.931,123.298C445.649,473.339,425.796,501.551,397.584,501.551z"/>
	<path style="fill:#FF7058;" d="M189.649,339.592L183.38,358.4l-42.841,117.029c-6.269,15.673-20.898,26.122-37.616,26.122
		c-28.212,0-48.065-28.212-37.616-54.335l43.886-123.298l7.314-18.808C138.449,320.784,163.527,332.278,189.649,339.592z"/>
</g>
<g>
	<path style="fill:#F1543F;" d="M116.506,305.11c21.943,15.673,47.02,28.212,73.143,35.527l-6.269,18.808
		c-26.122-7.314-51.2-18.808-74.188-34.482L116.506,305.11z"/>
	<path style="fill:#F1543F;" d="M391.314,323.918c-21.943,15.673-47.02,27.167-73.143,34.482l-7.314-18.808
		c27.167-7.314,51.2-18.808,73.143-35.527L391.314,323.918z"/>
</g>
<path style="fill:#334A5E;" d="M24.555,155.69c1.045,5.224,2.09,10.449,3.135,15.673h445.127c1.045-5.224,2.09-10.449,3.135-15.673
	H24.555z"/>
</svg>